<svg width="30" height="30" viewBox="0 0 30 30" fill="none" xmlns="http://www.w3.org/2000/svg">
<path d="M22.5 14.9766C22.5 15.3984 22.3359 15.75 22.0078 16.0312C21.7266 16.3125 21.375 16.4531 20.9531 16.4531H5.97656L0 22.5V1.47656C0 1.05469 0.140625 0.703125 0.421875 0.421875C0.703125 0.140625 1.05469 0 1.47656 0H20.9531C21.375 0 21.7266 0.140625 22.0078 0.421875C22.3359 0.703125 22.5 1.05469 22.5 1.47656V14.9766ZM28.4766 5.97656C28.8984 5.97656 29.25 6.11719 29.5312 6.39844C29.8125 6.67969 29.9531 7.03125 29.9531 7.45312V29.9531L23.9766 23.9766H7.45312C7.03125 23.9766 6.67969 23.8359 6.39844 23.5547C6.11719 23.2734 5.97656 22.9219 5.97656 22.5V19.4766H25.4531V5.97656H28.4766Z" fill="#2DCC7C"/>
</svg>
