<svg width="20" height="16" viewBox="0 0 20 16" fill="none" xmlns="http://www.w3.org/2000/svg">
<path d="M9.98438 11.9531C9.45312 11.9531 8.98438 11.7656 8.57812 11.3906C8.17188 10.9844 7.96875 10.5156 7.96875 9.98438C7.96875 9.42188 8.17188 8.9375 8.57812 8.53125L17.0625 2.90625L11.3906 11.3906C11.0156 11.7656 10.5469 11.9531 9.98438 11.9531ZM18.375 4.54688C18.8125 5.23438 19.1875 6.10938 19.5 7.17188C19.8125 8.23438 19.9688 9.17188 19.9688 9.98438C19.9688 11.8281 19.5312 13.4844 18.6562 14.9531C18.25 15.6406 17.6719 15.9844 16.9219 15.9844H3.04688C2.29688 15.9844 1.71875 15.6406 1.3125 14.9531C0.4375 13.4844 0 11.8281 0 9.98438C0 7.23438 0.96875 4.89062 2.90625 2.95312C4.875 0.984375 7.25 0 10.0312 0C10.8438 0 11.7656 0.15625 12.7969 0.46875C13.8594 0.78125 14.7344 1.15625 15.4219 1.59375L13.5469 2.8125C12.4219 2.25 11.2344 1.96875 9.98438 1.96875C7.79688 1.96875 5.90625 2.75 4.3125 4.3125C2.75 5.875 1.96875 7.76562 1.96875 9.98438C1.96875 11.4219 2.32812 12.75 3.04688 13.9688H16.9219C17.6406 12.75 18 11.4219 18 9.98438C18 8.70312 17.7188 7.5 17.1562 6.375L18.375 4.54688Z" fill="#2DCC7C"/>
</svg>
