<svg width="28" height="23" viewBox="0 0 28 23" fill="none" xmlns="http://www.w3.org/2000/svg">
<path d="M0 5.97656V9H16.5234V5.97656H0ZM0 3.02344V0H16.5234V3.02344H0ZM0 14.9766V12.0234H10.4766V14.9766H0ZM22.5 10.3359L25.6641 13.5L26.7891 12.4453C27.0703 12.1172 27.2109 11.7656 27.2109 11.3906C27.2109 10.9688 27.0703 10.6172 26.7891 10.3359L25.6641 9.21094C25.3828 8.92969 25.0312 8.78906 24.6094 8.78906C24.2344 8.78906 23.8828 8.92969 23.5547 9.21094L22.5 10.3359ZM21.4453 11.3906L24.6094 14.5547L16.6641 22.5H13.5V19.3359L21.4453 11.3906Z" fill="#2DCC7C"/>
</svg>
