<svg width="25" height="30" viewBox="0 0 25 30" fill="none" xmlns="http://www.w3.org/2000/svg">
<path d="M13.5 10.4766H21.7969L13.5 2.25V10.4766ZM18 18V14.9766H6.04688V18H18ZM18 23.9766V20.9531H6.04688V23.9766H18ZM15.0469 0L24.0469 9V27C24.0469 27.7969 23.7422 28.5 23.1328 29.1094C22.5234 29.6719 21.8203 29.9531 21.0234 29.9531H3.02344C2.22656 29.9531 1.52344 29.6719 0.914062 29.1094C0.304688 28.5 0 27.7969 0 27L0.0703125 2.95312C0.0703125 2.15625 0.351562 1.47656 0.914062 0.914062C1.52344 0.304687 2.22656 0 3.02344 0H15.0469Z" fill="#2DCC7C"/>
</svg>
