<svg width="27" height="27" viewBox="0 0 27 27" fill="none" xmlns="http://www.w3.org/2000/svg">
<path d="M21.0234 21.0234V14.9766H18V21.0234H21.0234ZM14.9766 21.0234V5.97656H12.0234V21.0234H14.9766ZM9 21.0234V10.4766H5.97656V21.0234H9ZM23.9766 0C24.7734 0 25.4766 0.304687 26.0859 0.914062C26.6953 1.52344 27 2.22656 27 3.02344V23.9766C27 24.7734 26.6953 25.4766 26.0859 26.0859C25.4766 26.6953 24.7734 27 23.9766 27H3.02344C2.22656 27 1.52344 26.6953 0.914062 26.0859C0.304688 25.4766 0 24.7734 0 23.9766V3.02344C0 2.22656 0.304688 1.52344 0.914062 0.914062C1.52344 0.304687 2.22656 0 3.02344 0H23.9766Z" fill="#2DCC7C"/>
</svg>
