<svg width="26" height="30" viewBox="0 0 26 30" fill="none" xmlns="http://www.w3.org/2000/svg">
<path d="M14.2734 16.4531C14.2734 15.375 15.0234 14.1797 16.5234 12.8672C18.0234 11.5547 18.7734 10.2656 18.7734 9C18.7734 7.35938 18.1641 5.95313 16.9453 4.78125C15.7734 3.5625 14.3672 2.95312 12.7266 2.95312C11.0859 2.95312 9.67969 3.5625 8.50781 4.78125C7.33594 5.95313 6.75 7.35938 6.75 9H9.77344C9.77344 8.20313 10.0547 7.5 10.6172 6.89062C11.2266 6.28125 11.9297 5.97656 12.7266 5.97656C13.5234 5.97656 14.2266 6.28125 14.8359 6.89062C15.4453 7.5 15.75 8.20313 15.75 9C15.75 9.65625 15.5156 10.2422 15.0469 10.7578C14.5781 11.2734 14.0625 11.6953 13.5 12.0234C12.9375 12.3516 12.4219 12.9141 11.9531 13.7109C11.4844 14.4609 11.25 15.375 11.25 16.4531H14.2734ZM14.2734 21.7266V18.7031H11.25V21.7266H14.2734ZM3.72656 3.72656C6.21094 1.24219 9.21094 0 12.7266 0C16.2422 0 19.2422 1.24219 21.7266 3.72656C24.2578 6.21094 25.5234 9.21094 25.5234 12.7266C25.5234 16.1484 24.4219 19.4531 22.2188 22.6406C20.0156 25.7812 17.1094 28.2188 13.5 29.9531V25.4531H12.7266C9.21094 25.4531 6.21094 24.2109 3.72656 21.7266C1.24219 19.2422 0 16.2422 0 12.7266C0 9.21094 1.24219 6.21094 3.72656 3.72656Z" fill="#2DCC7C"/>
</svg>
