<svg width="30" height="30" viewBox="0 0 30 30" fill="none" xmlns="http://www.w3.org/2000/svg">
<path d="M29.9531 4.78125L27.8438 2.67188L12.8672 17.6484L8.64844 13.4297L6.46875 15.5391L12.8672 21.8672L29.9531 4.78125ZM26.6484 12.3047L29.1094 9.91406C29.3906 10.7109 29.6016 11.5312 29.7422 12.375C29.8828 13.2188 29.9531 14.0859 29.9531 14.9766C29.9531 17.0391 29.5547 18.9844 28.7578 20.8125C28.0078 22.5938 26.9297 24.1875 25.5234 25.5938C24.1641 26.9531 22.5703 28.0312 20.7422 28.8281C18.9609 29.5781 17.0391 29.9531 14.9766 29.9531C12.9141 29.9531 10.9688 29.5781 9.14062 28.8281C7.35938 28.0312 5.76562 26.9531 4.35938 25.5938C3 24.1875 1.92188 22.5938 1.125 20.8125C0.375 18.9844 0 17.0391 0 14.9766C0 12.9141 0.375 10.9922 1.125 9.21094C1.92188 7.38281 3 5.78906 4.35938 4.42969C5.76562 3.02344 7.35938 1.94531 9.14062 1.19531C10.9688 0.398438 12.9141 0 14.9766 0C16.5703 0 18.0938 0.234375 19.5469 0.703125C21 1.17188 22.3359 1.82812 23.5547 2.67188L21.375 4.85156C20.4375 4.24219 19.4297 3.77344 18.3516 3.44531C17.2734 3.11719 16.1484 2.95312 14.9766 2.95312C13.3359 2.95312 11.7891 3.28125 10.3359 3.9375C8.88281 4.54688 7.59375 5.41406 6.46875 6.53906C5.39062 7.61719 4.52344 8.88281 3.86719 10.3359C3.25781 11.7891 2.95312 13.3359 2.95312 14.9766C2.95312 16.6172 3.25781 18.1641 3.86719 19.6172C4.52344 21.0703 5.39062 22.3594 6.46875 23.4844C7.59375 24.5625 8.88281 25.4297 10.3359 26.0859C11.7891 26.6953 13.3359 27 14.9766 27C16.6172 27 18.1641 26.6953 19.6172 26.0859C21.0703 25.4297 22.3359 24.5625 23.4141 23.4844C24.5391 22.3594 25.4062 21.0703 26.0156 19.6172C26.6719 18.1641 27 16.6172 27 14.9766C27 14.5078 26.9531 14.0625 26.8594 13.6406C26.8125 13.1719 26.7422 12.7266 26.6484 12.3047Z" fill="#2DCC7C"/>
</svg>
