<svg width="25" height="30" viewBox="0 0 25 30" fill="none" xmlns="http://www.w3.org/2000/svg">
<path d="M6.04688 19.4766L12.0234 13.5L18 19.4766L15.8906 21.6562L13.5 19.2656V25.4531H10.5469V19.2656L8.15625 21.5859L6.04688 19.4766ZM21.0234 27V10.4766H13.5V2.95312H3.02344V27H21.0234ZM15.0469 0L24.0469 9V27C24.0469 27.7969 23.7422 28.5 23.1328 29.1094C22.5234 29.6719 21.8203 29.9531 21.0234 29.9531H3.02344C2.22656 29.9531 1.52344 29.6719 0.914062 29.1094C0.304688 28.5 0 27.7969 0 27L0.0703125 2.95312C0.0703125 2.15625 0.351562 1.47656 0.914062 0.914062C1.52344 0.304687 2.22656 0 3.02344 0H15.0469Z" fill="#71C7B1"/>
</svg>
