<svg width="36" height="25" viewBox="0 0 36 25" fill="none" xmlns="http://www.w3.org/2000/svg">
<path d="M21.0234 13.5H25.5234L18 6.04688L10.4766 13.5H14.9766V19.5469H21.0234V13.5ZM29.0391 9.07031C30.9609 9.21094 32.6016 10.0078 33.9609 11.4609C35.3203 12.8672 36 14.5547 36 16.5234C36 18.5859 35.25 20.3672 33.75 21.8672C32.2969 23.3203 30.5391 24.0469 28.4766 24.0469H9C6.51562 24.0469 4.38281 23.1797 2.60156 21.4453C0.867188 19.6641 0 17.5312 0 15.0469C0 12.8438 0.773438 10.875 2.32031 9.14062C3.91406 7.35938 5.8125 6.35156 8.01562 6.11719C9 4.28906 10.3828 2.8125 12.1641 1.6875C13.9453 0.5625 15.8906 0 18 0C20.5312 0 22.875 0.890625 25.0312 2.67188C27.2344 4.45312 28.5703 6.58594 29.0391 9.07031Z" fill="#2DCC7C"/>
</svg>
